<?xml version="1.0" encoding="UTF-8" standalone="no"?>
<svg width="512px" height="506px" viewBox="0 0 512 506" version="1.1" xmlns="http://www.w3.org/2000/svg" xmlns:xlink="http://www.w3.org/1999/xlink" xmlns:sketch="http://www.bohemiancoding.com/sketch/ns">
    <!-- Generator: Sketch 3.4.4 (17249) - http://www.bohemiancoding.com/sketch -->
    <title>Peninsula</title>
    <desc>Created with Sketch.</desc>
    <defs>
        <rect id="path-1" x="0" y="0" width="525" height="519"></rect>
        <path id="path-3" d="M121.938208,565.62956 L118.545454,563.564496 L114.755014,557.087607 L114.616929,550.318669 L112.881197,544.166281 L108.85256,537.105292 L104.985483,530.859006 L102.776119,526.37814 L101.018294,521.089476 L99.6132767,514.107195 L96.6133749,510.706846 L96.2453777,506.571884 L93.566524,503.709377 L92.3534452,498.092069 L92.3534452,491.239589 L91.8307926,483.505435 L91.5166486,475.963219 L90.7261106,469.538113 L89.8202715,462.692537 L88.6934959,454.165773 L86.3073829,445.992508 L83.1231373,438.739581 L79.4549029,431.587456 L74.3284883,425.272818 L68.5344316,419.65551 L60.5606994,413.966398 L53.8925631,412.745725 L46.6644912,412.876215 L41.1548901,415.576472 L39.1906276,418.400315 L39.8196058,422.267392 L35.6604784,422.996482 L34.363858,419.451144 L36.0754246,417.018082 L34.2485568,411.530574 L29.0461954,408.03978 L24.6267773,401.999931 L22.2551632,398.783236 L20.1141516,391.187166 L17.1611987,388.070583 L16.8546495,384.316735 L14.6597846,375.730595 L14.6521899,368.925064 L16.3637565,362.571072 L19.5404074,357.134656 L21.1753367,346.353651 L18.7353705,340.643135 L20.2846869,335.232265 L19.5480021,329.907008 L16.5625992,328.303838 L16.209101,322.303344 L16.5377439,314.90888 L17.2675244,299.907989 L13,293.745936 L20.3585625,292.280161 L20.1818134,288.50422 L27.0584583,291.735414 L34.72357,286.893456 L32.7448085,277.919986 L37.3188821,274.818592 L37.8636284,266.540381 L36.2756481,260.616525 L39.1084669,256.233009 L40.9422389,232.144729 L40.8124387,218.346561 L40.9891878,204.848729 L38.2267926,199.645677 L39.3321649,193.269591 L39.3466639,183.286719 L37.7510889,172.102505 L34.9348405,156.94903 L30.869611,138.774941 L28.208018,130.051406 L26.4205045,111.796537 L26.2582544,100.248469 L22.5907104,78.7485969 L21.1318398,70.8135285 L21.3161836,57.0740471 L20.002993,53.1192858 L23.2410919,47.049749 L29.1117859,42.2008858 L35.2420801,41.5870969 L38.2350777,42.6848746 L49.0844351,40.6515694 L54.9496057,26.481262 L58.0799981,13 L65.0160197,15.3785183 L73.5400216,20.6651117 L93.2606652,18.5310043 L102.5828,17.0659199 L116.923642,15.4620598 L128.510375,15.2853107 L137.26567,21.9610417 L142.436272,29.9188941 L148.635608,37.6772133 L151.581657,41.5539565 L150.715172,55.1042611 L152.242395,61.9567412 L153.416119,67.4069656 L151.704553,73.723675 L155.517777,76.6628193 L157.619434,85.0204285 L154.182493,85.2040819 L156.26896,87.537032 L162.522841,90.0460408 L162.69959,95.2635916 L171.201498,104.372385 L164.518173,106.933866 L163.597144,114.078396 L167.581594,112.097563 L178.124402,117.560215 L182.261436,121.167002 L177.174375,125.770764 L176.131141,133.052689 L173.744338,136.244529 L167.259855,131.825111 L164.088037,132.00186 L161.441634,125.441431 L154.159708,125.264681 L155.455638,130.904773 L161.893172,135.846844 L158.333335,145.660562 L152.08912,144.241046 L144.240355,146.87295 L147.800193,171.572948 L139.58274,173.107765 L149.395768,186.604217 L156.75433,187.325712 L158.2277,193.326206 L149.840402,193.8026 L142.951329,202.626937 L148.966323,200.279488 L152.779546,202.911393 L155.403856,197.43148 L158.465897,199.020151 L157.421972,203.493422 L155.801542,204.951602 L165.067752,205.7739 L163.540529,207.97636 L157.846584,208.337453 L163.03997,215.633186 L158.38995,224.781333 L146.189428,224.903539 L141.831458,235.898576 L154.46971,235.088016 L157.169967,240.720513 L150.325081,242.193192 L150.455572,247.756646 L158.351286,247.410743 L173.944562,252.374907 L170.492431,259.915742 L184.579887,267.26671 L180.475303,275.28532 L167.232238,268.283708 L161.017712,279.447209 L173.916254,289.428701 L178.826565,296.964012 L204.692693,297.646844 L205.555035,302.501921 L217.333016,298.443595 L221.653703,298.074908 L223.48057,307.176106 L235.5651,319.192284 L243.569211,318.931993 L247.060697,325.076786 L249.363958,323.541969 L251.143877,320.357723 L262.499317,321.47 L268.922352,325.820375 L280.699642,321.754455 L289.769771,328.040095 L297.258134,343.839118 L298.424264,352.52537 L314.604402,352.853323 L319.615515,361.861313 L326.360289,362.53655 L329.429233,366.511334 L341.958397,366.258638 L348.857136,370.930752 L345.665296,378.672501 L337.386395,385.647877 L341.161645,389.173884 L347.238086,385.560193 L358.019092,394.629631 L369.168094,405.909124 L376.566011,410.55155 L379.013572,417.718174 L377.931674,436.352777 L393.085148,438.702298 L393.085148,433.37704 L402.100733,433.676685 L400.642553,429.16406 L392.106124,430.376448 L390.041749,424.798495 L389.373417,415.461171 L397.653008,413.619804 L407.213339,407.18227 L413.228333,410.619212 L413.412676,420.388743 L418.224947,418.807667 L422.828709,437.383584 L421.500329,447.516279 L426.396141,458.296593 L433.938357,465.233305 L444.650319,466.023843 L446.469592,470.850613 L450.022526,471.402954 L453.09147,475.814777 L457.451512,483.443296 L453.569245,493.324676 L445.235801,496.025624 L448.611985,500.191655 L476.058498,499.700762 L480.040876,508.586548 L490.475287,512.207833 L492.807547,505.102657 L496.252774,504.549626 L498.783876,511.110055 L520.068335,513.749555 L524.527108,518.883564 L535.123769,520.272701 L545.313769,522.55387 L558.633472,523.044763 L569.491114,520.520564 L568.763405,508.991828 L572.401951,495.545087 L599.018572,493.895659 L599.018572,488.447506 L609.33561,488.999847 L609.696013,485.270164 L614.29218,485.270164 L625,577.012617 L121.904377,573.943673 L121.938208,565.62956 Z"></path>
    </defs>
    <g id="Page-1" stroke="none" stroke-width="1" fill="none" fill-rule="evenodd" sketch:type="MSPage">
        <g id="Path-1" sketch:type="MSLayerGroup" transform="translate(-13.000000, -13.000000)">
            <mask id="mask-2" sketch:name="Mask" fill="white">
                <use xlink:href="#path-1"></use>
            </mask>
            <use id="Mask" sketch:type="MSShapeGroup" xlink:href="#path-1"></use>
            <g>
                <use fill="#000000" fill-rule="evenodd" sketch:type="MSShapeGroup" mask="url(#mask-2)" xlink:href="#path-3"></use>
                <use fill="none" xlink:href="#path-3"></use>
            </g>
        </g>
    </g>
</svg>