<?xml version="1.0" encoding="UTF-8" standalone="no"?>
<svg width="630px" height="630px" viewBox="0 0 630 630" version="1.1" xmlns="http://www.w3.org/2000/svg" xmlns:xlink="http://www.w3.org/1999/xlink" xmlns:sketch="http://www.bohemiancoding.com/sketch/ns">
    <!-- Generator: Sketch 3.5.1 (25234) - http://www.bohemiancoding.com/sketch -->
    <title>feb2016</title>
    <desc>Created with Sketch.</desc>
    <defs>
        <rect id="path-1" x="0" y="0" width="630" height="630"></rect>
    </defs>
    <g id="Page-1" stroke="none" stroke-width="1" fill="none" fill-rule="evenodd" sketch:type="MSPage">
        <g id="feb2016" sketch:type="MSArtboardGroup">
            <mask id="mask-2" sketch:name="yellow" fill="white">
                <use xlink:href="#path-1"></use>
            </mask>
            <use id="yellow" fill="#F7DF1E" sketch:type="MSShapeGroup" xlink:href="#path-1"></use>
            <path d="M50.25,394.442105 C50.25,432.907895 79.6447368,453.368421 134.906842,453.368421 L200.751053,453.368421 C256.013158,453.368421 285.407895,432.907895 285.407895,394.442105 L285.407895,184.926316 C285.407895,146.460526 256.013158,126 200.751053,126 L134.906842,126 C79.6447368,126 50.25,146.460526 50.25,184.926316 L50.25,394.442105 Z M151.955789,400.580263 C136.670526,400.580263 128.44,395.260526 128.44,384.211842 L128.44,195.156579 C128.44,184.517105 136.670526,178.788158 151.955789,178.788158 L186.053684,178.788158 C201.338947,178.788158 209.569474,184.517105 209.569474,195.156579 L209.569474,384.211842 C209.569474,395.260526 201.338947,400.580263 186.053684,400.580263 L151.955789,400.580263 Z M563.482105,296.640789 C574.652105,292.548684 579.355263,289.275 579.355263,281.5 L579.355263,184.926316 C579.355263,146.460526 549.372632,126 494.698421,126 L428.854211,126 C373.592105,126 344.197368,146.460526 344.197368,184.926316 L344.197368,228.302632 C344.197368,232.394737 347.136842,234.85 353.603684,234.85 L414.744737,234.85 C420.623684,234.85 424.151053,232.394737 424.151053,228.302632 L424.151053,196.384211 C424.151053,185.744737 431.793684,180.015789 447.666842,180.015789 L475.885789,180.015789 C490.583158,180.015789 499.401579,185.744737 499.401579,196.384211 L499.401579,256.947368 L359.482632,309.326316 C348.312632,313.418421 344.197368,316.692105 344.197368,324.467105 L344.197368,445.184211 C344.197368,450.503947 348.312632,453.368421 355.955263,453.368421 L567.597368,453.368421 C575.24,453.368421 579.355263,450.503947 579.355263,445.184211 L579.355263,382.575 C579.355263,377.255263 575.24,374.390789 567.597368,374.390789 L511.159474,374.390789 C503.516842,374.390789 499.401579,377.255263 499.401579,382.575 L499.401579,399.352632 L435.908947,399.352632 C428.266316,399.352632 424.151053,396.488158 424.151053,391.168421 L424.151053,355.567105 C424.151053,351.065789 426.502632,348.201316 432.381579,345.746053 L563.482105,296.640789 Z" id="02" stroke="#F7DF1E" stroke-width="8" fill="#000000" sketch:type="MSShapeGroup" mask="url(#mask-2)"></path>
            <g id="Group" sketch:type="MSLayerGroup" mask="url(#mask-2)" stroke="#F7DF1E" stroke-width="7" fill="#000000">
                <g transform="translate(232.000000, 23.000000)" sketch:type="MSShapeGroup">
                    <path d="M150.246094,429.898438 L112.003906,121.421875 L82.875,123.503906 L100.933594,437.582031 L150.246094,429.898438 Z" id="Path-83"></path>
                    <path d="M14.859375,431.554688 L45.5859375,128.898438 L97.8984375,129.855469 L113.222656,433.945312 L14.859375,431.554688 Z" id="Path-82"></path>
                    <path d="M176.012531,15.9507376 C158.688067,5.81143586 138.522701,0 117,0 C52.3826843,0 0,52.3826843 0,117 C0,129.948747 2.10351412,142.406192 5.98746912,154.049262 C23.3119229,164.188561 43.4772943,170 65,170 C129.617316,170 182,117.617316 182,53 C182,40.0512527 179.896486,27.5938075 176.012531,15.9507376 Z" id="Oval-2"></path>
                </g>
            </g>
            <path d="M77.5520003,545.84 L81.6120003,545.84 L81.6120003,566 L77.8880003,566 L77.8880003,551.216 L70.2440003,560.316 L62.5720003,551.216 L62.5720003,566 L58.8760003,566 L58.8760003,545.84 L62.9080003,545.84 L70.2440003,554.576 L77.5520003,545.84 Z M102.972,545.84 C103.49467,545.84 103.993998,545.942666 104.47,546.148 C104.946003,546.353334 105.361332,546.628665 105.716,546.974 C106.070669,547.319335 106.350666,547.729998 106.556,548.206 C106.761335,548.682002 106.864,549.190664 106.864,549.732 L106.864,562.108 C106.864,562.649336 106.761335,563.157998 106.556,563.634 C106.350666,564.110002 106.070669,564.520665 105.716,564.866 C105.361332,565.211335 104.946003,565.486666 104.47,565.692 C103.993998,565.897334 103.49467,566 102.972,566 L90.5960003,566 C90.0546642,566 89.5460026,565.897334 89.0700003,565.692 C88.5939979,565.486666 88.1833353,565.211335 87.8380003,564.866 C87.4926652,564.520665 87.2173346,564.110002 87.0120003,563.634 C86.8066659,563.157998 86.7040003,562.649336 86.7040003,562.108 L86.7040003,549.732 C86.7040003,549.190664 86.8066659,548.682002 87.0120003,548.206 C87.2173346,547.729998 87.4926652,547.319335 87.8380003,546.974 C88.1833353,546.628665 88.5939979,546.353334 89.0700003,546.148 C89.5460026,545.942666 90.0546642,545.84 90.5960003,545.84 L102.972,545.84 Z M102.972,562.304 C103.084001,562.304 103.14,562.238667 103.14,562.108 L103.14,549.732 C103.14,549.601333 103.084001,549.536 102.972,549.536 L90.5960003,549.536 C90.4653329,549.536 90.4000003,549.601333 90.4000003,549.732 L90.4000003,562.108 C90.4000003,562.238667 90.4653329,562.304 90.5960003,562.304 L102.972,562.304 Z M128.224,545.84 L131.948,545.84 L131.948,562.108 C131.948,562.649336 131.845335,563.157998 131.64,563.634 C131.434666,564.110002 131.154669,564.520665 130.8,564.866 C130.445332,565.211335 130.030003,565.486666 129.554,565.692 C129.077998,565.897334 128.57867,566 128.056,566 L115.68,566 C115.138664,566 114.630003,565.897334 114.154,565.692 C113.677998,565.486666 113.267335,565.211335 112.922,564.866 C112.576665,564.520665 112.301335,564.110002 112.096,563.634 C111.890666,563.157998 111.788,562.649336 111.788,562.108 L111.788,545.84 L115.484,545.84 L115.484,562.108 C115.484,562.238667 115.549333,562.304 115.68,562.304 L128.056,562.304 C128.168001,562.304 128.224,562.238667 128.224,562.108 L128.224,545.84 Z M153.364,545.84 L157.088,545.84 L157.088,566 L153.056,566 L140.624,551.216 L140.624,566 L136.928,566 L136.928,545.84 L140.96,545.84 L153.364,560.624 L153.364,545.84 Z M181.276,545.84 L181.276,549.536 L173.072,549.536 L173.072,566 L169.348,566 L169.348,549.536 L161.116,549.536 L161.116,545.84 L181.276,545.84 Z M201.572,545.84 C202.113336,545.84 202.621998,545.942666 203.098,546.148 C203.574003,546.353334 203.989332,546.628665 204.344,546.974 C204.698669,547.319335 204.978666,547.729998 205.184,548.206 C205.389335,548.682002 205.492,549.190664 205.492,549.732 L205.492,566 L201.768,566 L201.768,559.224 L189.028,559.224 L189.028,566 L185.332,566 L185.332,549.732 C185.332,549.190664 185.434666,548.682002 185.64,548.206 C185.845335,547.729998 186.120665,547.319335 186.466,546.974 C186.811335,546.628665 187.221998,546.353334 187.698,546.148 C188.174003,545.942666 188.682664,545.84 189.224,545.84 L201.572,545.84 Z M201.768,555.528 L201.768,549.732 C201.768,549.601333 201.702667,549.536 201.572,549.536 L189.224,549.536 C189.093333,549.536 189.028,549.601333 189.028,549.732 L189.028,555.528 L201.768,555.528 Z M210.612,545.84 L214.308,545.84 L214.308,566 L210.612,566 L210.612,545.84 Z M235.08,545.84 L238.804,545.84 L238.804,566 L234.772,566 L222.34,551.216 L222.34,566 L218.644,566 L218.644,545.84 L222.676,545.84 L235.08,560.624 L235.08,545.84 Z M276.12,545.84 L280.404,545.84 L268.756,566 L265.424,566 L253.776,545.84 L258.06,545.84 L267.104,561.52 L276.12,545.84 Z M284.376,545.84 L288.072,545.84 L288.072,566 L284.376,566 L284.376,545.84 Z M311,549.536 L296.188,549.536 L296.188,554.072 L308.116,554.072 L308.116,557.768 L296.188,557.768 L296.188,562.304 L311,562.304 L311,566 L292.464,566 L292.464,545.84 L311,545.84 L311,549.536 Z M346.108,545.84 L338.772,566 L335.86,566 L330.624,551.692 C329.765329,554.062679 328.888004,556.451988 327.992,558.86 C327.095996,561.268012 326.228004,563.647988 325.388,566 L322.504,566 L315.168,545.84 L319.088,545.84 L323.96,559.14 L328.832,545.84 L332.444,545.84 L337.316,559.14 L342.188,545.84 L346.108,545.84 Z M365.084,549.536 C364.953333,549.536 364.888,549.601333 364.888,549.732 L364.888,562.108 C364.888,562.238667 364.953333,562.304 365.084,562.304 L381.296,562.304 L381.296,566 L365.084,566 C364.542664,566 364.034002,565.897334 363.558,565.692 C363.081998,565.486666 362.671335,565.211335 362.326,564.866 C361.980665,564.520665 361.705334,564.110002 361.5,563.634 C361.294666,563.157998 361.192,562.649336 361.192,562.108 L361.192,549.732 C361.192,549.190664 361.294666,548.682002 361.5,548.206 C361.705334,547.729998 361.980665,547.319335 362.326,546.974 C362.671335,546.628665 363.081998,546.353334 363.558,546.148 C364.034002,545.942666 364.542664,545.84 365.084,545.84 L381.296,545.84 L381.296,549.536 L365.084,549.536 Z M402.404,545.84 C402.945336,545.84 403.453998,545.942666 403.93,546.148 C404.406002,546.353334 404.821331,546.628665 405.176,546.974 C405.530668,547.319335 405.810666,547.729998 406.016,548.206 C406.221334,548.682002 406.324,549.190664 406.324,549.732 L406.324,566 L402.6,566 L402.6,559.224 L389.86,559.224 L389.86,566 L386.164,566 L386.164,549.732 C386.164,549.190664 386.266666,548.682002 386.472,548.206 C386.677334,547.729998 386.952665,547.319335 387.298,546.974 C387.643335,546.628665 388.053998,546.353334 388.53,546.148 C389.006002,545.942666 389.514664,545.84 390.056,545.84 L402.404,545.84 Z M402.6,555.528 L402.6,549.732 C402.6,549.601333 402.534667,549.536 402.404,549.536 L390.056,549.536 C389.925333,549.536 389.86,549.601333 389.86,549.732 L389.86,555.528 L402.6,555.528 Z M411.444,545.812 L415.14,545.812 L415.14,562.304 L431.604,562.304 L431.604,566 L411.444,566 L411.444,545.812 Z M435.436,545.84 L439.132,545.84 L439.132,566 L435.436,566 L435.436,545.84 Z M462.06,545.84 L462.06,549.536 L447.248,549.536 L447.248,554.072 L459.176,554.072 L459.176,557.768 L447.248,557.768 L447.248,566 L443.524,566 L443.524,545.84 L462.06,545.84 Z M481.824,545.84 C482.346669,545.84 482.845997,545.942666 483.322,546.148 C483.798002,546.353334 484.213331,546.628665 484.568,546.974 C484.922668,547.319335 485.202665,547.729998 485.408,548.206 C485.613334,548.682002 485.716,549.190664 485.716,549.732 L485.716,562.108 C485.716,562.649336 485.613334,563.157998 485.408,563.634 C485.202665,564.110002 484.922668,564.520665 484.568,564.866 C484.213331,565.211335 483.798002,565.486666 483.322,565.692 C482.845997,565.897334 482.346669,566 481.824,566 L469.448,566 C468.906664,566 468.398002,565.897334 467.922,565.692 C467.445997,565.486666 467.035335,565.211335 466.69,564.866 C466.344665,564.520665 466.069334,564.110002 465.864,563.634 C465.658665,563.157998 465.556,562.649336 465.556,562.108 L465.556,549.732 C465.556,549.190664 465.658665,548.682002 465.864,548.206 C466.069334,547.729998 466.344665,547.319335 466.69,546.974 C467.035335,546.628665 467.445997,546.353334 467.922,546.148 C468.398002,545.942666 468.906664,545.84 469.448,545.84 L481.824,545.84 Z M481.824,562.304 C481.936,562.304 481.992,562.238667 481.992,562.108 L481.992,549.732 C481.992,549.601333 481.936,549.536 481.824,549.536 L469.448,549.536 C469.317333,549.536 469.252,549.601333 469.252,549.732 L469.252,562.108 C469.252,562.238667 469.317333,562.304 469.448,562.304 L481.824,562.304 Z M510.828,555.192 C510.828,555.733336 510.725334,556.237331 510.52,556.704 C510.314665,557.170669 510.034668,557.581332 509.68,557.936 C509.325331,558.290668 508.910002,558.570666 508.434,558.776 C507.957997,558.981334 507.449336,559.084 506.908,559.084 L505.816,559.084 L510.828,565.048 L510.828,566 L506.796,566 L500.972,559.084 L494.448,559.084 L494.364,559.084 L494.364,566 L490.668,566 L490.668,545.868 L506.908,545.868 C507.449336,545.868 507.957997,545.970666 508.434,546.176 C508.910002,546.381334 509.325331,546.661332 509.68,547.016 C510.034668,547.370668 510.314665,547.785998 510.52,548.262 C510.725334,548.738002 510.828,549.237331 510.828,549.76 L510.828,555.192 Z M506.908,555.388 C507.038667,555.388 507.104,555.322667 507.104,555.192 L507.104,549.76 C507.104,549.629333 507.038667,549.564 506.908,549.564 L494.56,549.564 C494.429332,549.564 494.364,549.629333 494.364,549.76 L494.364,555.192 C494.364,555.322667 494.429332,555.388 494.56,555.388 L506.908,555.388 Z M532.132,545.84 L535.856,545.84 L535.856,566 L531.824,566 L519.392,551.216 L519.392,566 L515.696,566 L515.696,545.84 L519.728,545.84 L532.132,560.624 L532.132,545.84 Z M540.92,545.84 L544.616,545.84 L544.616,566 L540.92,566 L540.92,545.84 Z M565.248,545.84 C565.789336,545.84 566.297997,545.942666 566.774,546.148 C567.250002,546.353334 567.665331,546.628665 568.02,546.974 C568.374668,547.319335 568.654665,547.729998 568.86,548.206 C569.065334,548.682002 569.168,549.190664 569.168,549.732 L569.168,566 L565.444,566 L565.444,559.224 L552.704,559.224 L552.704,566 L549.008,566 L549.008,549.732 C549.008,549.190664 549.110665,548.682002 549.316,548.206 C549.521334,547.729998 549.796665,547.319335 550.142,546.974 C550.487335,546.628665 550.897997,546.353334 551.374,546.148 C551.850002,545.942666 552.358664,545.84 552.9,545.84 L565.248,545.84 Z M565.444,555.528 L565.444,549.732 C565.444,549.601333 565.378667,549.536 565.248,549.536 L552.9,549.536 C552.769332,549.536 552.704,549.601333 552.704,549.732 L552.704,555.528 L565.444,555.528 Z M232.07,582.84 C232.592669,582.84 233.091998,582.942666 233.568,583.148 C234.044002,583.353334 234.459332,583.628665 234.814,583.974 C235.168669,584.319335 235.448666,584.729998 235.654,585.206 C235.859334,585.682002 235.962,586.190664 235.962,586.732 L235.962,599.108 C235.962,599.649336 235.859334,600.157998 235.654,600.634 C235.448666,601.110002 235.168669,601.520665 234.814,601.866 C234.459332,602.211335 234.044002,602.486666 233.568,602.692 C233.091998,602.897334 232.592669,603 232.07,603 L219.694,603 C219.152664,603 218.644002,602.897334 218.168,602.692 C217.691998,602.486666 217.281335,602.211335 216.936,601.866 C216.590665,601.520665 216.315334,601.110002 216.11,600.634 C215.904666,600.157998 215.802,599.649336 215.802,599.108 L215.802,586.732 C215.802,586.190664 215.904666,585.682002 216.11,585.206 C216.315334,584.729998 216.590665,584.319335 216.936,583.974 C217.281335,583.628665 217.691998,583.353334 218.168,583.148 C218.644002,582.942666 219.152664,582.84 219.694,582.84 L232.07,582.84 Z M232.07,599.304 C232.182001,599.304 232.238,599.238667 232.238,599.108 L232.238,586.732 C232.238,586.601333 232.182001,586.536 232.07,586.536 L219.694,586.536 C219.563333,586.536 219.498,586.601333 219.498,586.732 L219.498,599.108 C219.498,599.238667 219.563333,599.304 219.694,599.304 L232.07,599.304 Z M257.07,582.84 C257.592669,582.84 258.091998,582.942666 258.568,583.148 C259.044002,583.353334 259.454665,583.628665 259.8,583.974 C260.145335,584.319335 260.420666,584.729998 260.626,585.206 C260.831334,585.682002 260.934,586.181331 260.934,586.704 L260.934,591.184 C260.934,591.725336 260.831334,592.229331 260.626,592.696 C260.420666,593.162669 260.145335,593.568665 259.8,593.914 C259.454665,594.259335 259.044002,594.534666 258.568,594.74 C258.091998,594.945334 257.592669,595.048 257.07,595.048 L244.834,595.048 C244.703333,595.048 244.638,595.103999 244.638,595.216 L244.638,599.136 C244.638,599.266667 244.703333,599.332 244.834,599.332 L260.934,599.332 L260.934,603 L240.97,603 L240.97,595.216 C240.97,594.693331 241.072666,594.194002 241.278,593.718 C241.483334,593.241998 241.758665,592.831335 242.104,592.486 C242.449335,592.140665 242.855331,591.865334 243.322,591.66 C243.788669,591.454666 244.292664,591.352 244.834,591.352 L257.07,591.352 C257.200667,591.352 257.266,591.296001 257.266,591.184 L257.266,586.704 C257.266,586.573333 257.200667,586.508 257.07,586.508 L244.834,586.508 C244.703333,586.508 244.638,586.573333 244.638,586.704 L244.638,588.216 L240.97,588.216 L240.97,586.704 C240.97,586.181331 241.072666,585.682002 241.278,585.206 C241.483334,584.729998 241.758665,584.319335 242.104,583.974 C242.449335,583.628665 242.855331,583.353334 243.322,583.148 C243.788669,582.942666 244.292664,582.84 244.834,582.84 L257.07,582.84 Z M269.694,603 L266.026,603 L266.026,599.332 L269.694,599.332 L269.694,603 Z M290.102,582.84 C290.624669,582.84 291.123998,582.942666 291.6,583.148 C292.076002,583.353334 292.486665,583.628665 292.832,583.974 C293.177335,584.319335 293.452666,584.729998 293.658,585.206 C293.863334,585.682002 293.966,586.181331 293.966,586.704 L293.966,591.184 C293.966,591.725336 293.863334,592.229331 293.658,592.696 C293.452666,593.162669 293.177335,593.568665 292.832,593.914 C292.486665,594.259335 292.076002,594.534666 291.6,594.74 C291.123998,594.945334 290.624669,595.048 290.102,595.048 L277.866,595.048 C277.735333,595.048 277.67,595.103999 277.67,595.216 L277.67,599.136 C277.67,599.266667 277.735333,599.332 277.866,599.332 L293.966,599.332 L293.966,603 L274.002,603 L274.002,595.216 C274.002,594.693331 274.104666,594.194002 274.31,593.718 C274.515334,593.241998 274.790665,592.831335 275.136,592.486 C275.481335,592.140665 275.887331,591.865334 276.354,591.66 C276.820669,591.454666 277.324664,591.352 277.866,591.352 L290.102,591.352 C290.232667,591.352 290.298,591.296001 290.298,591.184 L290.298,586.704 C290.298,586.573333 290.232667,586.508 290.102,586.508 L277.866,586.508 C277.735333,586.508 277.67,586.573333 277.67,586.704 L277.67,588.216 L274.002,588.216 L274.002,586.704 C274.002,586.181331 274.104666,585.682002 274.31,585.206 C274.515334,584.729998 274.790665,584.319335 275.136,583.974 C275.481335,583.628665 275.887331,583.353334 276.354,583.148 C276.820669,582.942666 277.324664,582.84 277.866,582.84 L290.102,582.84 Z M316.894,594.264 L316.894,597.932 L314.066,597.932 L314.066,603 L310.398,603 L310.398,597.932 L297.714,597.932 L297.714,594.488 L310.622,582.84 L314.066,582.84 L314.066,594.264 L316.894,594.264 Z M303.426,594.264 L310.398,594.264 L310.398,588.608 L303.426,594.264 Z M325.066,603 L321.398,603 L321.398,599.332 L325.066,599.332 L325.066,603 Z M345.474,582.84 C345.996669,582.84 346.495998,582.942666 346.972,583.148 C347.448002,583.353334 347.858665,583.628665 348.204,583.974 C348.549335,584.319335 348.824666,584.729998 349.03,585.206 C349.235334,585.682002 349.338,586.181331 349.338,586.704 L349.338,591.184 C349.338,591.725336 349.235334,592.229331 349.03,592.696 C348.824666,593.162669 348.549335,593.568665 348.204,593.914 C347.858665,594.259335 347.448002,594.534666 346.972,594.74 C346.495998,594.945334 345.996669,595.048 345.474,595.048 L333.238,595.048 C333.107333,595.048 333.042,595.103999 333.042,595.216 L333.042,599.136 C333.042,599.266667 333.107333,599.332 333.238,599.332 L349.338,599.332 L349.338,603 L329.374,603 L329.374,595.216 C329.374,594.693331 329.476666,594.194002 329.682,593.718 C329.887334,593.241998 330.162665,592.831335 330.508,592.486 C330.853335,592.140665 331.259331,591.865334 331.726,591.66 C332.192669,591.454666 332.696664,591.352 333.238,591.352 L345.474,591.352 C345.604667,591.352 345.67,591.296001 345.67,591.184 L345.67,586.704 C345.67,586.573333 345.604667,586.508 345.474,586.508 L333.238,586.508 C333.107333,586.508 333.042,586.573333 333.042,586.704 L333.042,588.216 L329.374,588.216 L329.374,586.704 C329.374,586.181331 329.476666,585.682002 329.682,585.206 C329.887334,584.729998 330.162665,584.319335 330.508,583.974 C330.853335,583.628665 331.259331,583.353334 331.726,583.148 C332.192669,582.942666 332.696664,582.84 333.238,582.84 L345.474,582.84 Z M370.698,582.84 C371.220669,582.84 371.719998,582.942666 372.196,583.148 C372.672002,583.353334 373.087332,583.628665 373.442,583.974 C373.796668,584.319335 374.076666,584.729998 374.282,585.206 C374.487334,585.682002 374.59,586.190664 374.59,586.732 L374.59,599.108 C374.59,599.649336 374.487334,600.157998 374.282,600.634 C374.076666,601.110002 373.796668,601.520665 373.442,601.866 C373.087332,602.211335 372.672002,602.486666 372.196,602.692 C371.719998,602.897334 371.220669,603 370.698,603 L358.322,603 C357.780664,603 357.272002,602.897334 356.796,602.692 C356.319998,602.486666 355.909335,602.211335 355.564,601.866 C355.218665,601.520665 354.943334,601.110002 354.738,600.634 C354.532666,600.157998 354.43,599.649336 354.43,599.108 L354.43,586.732 C354.43,586.190664 354.532666,585.682002 354.738,585.206 C354.943334,584.729998 355.218665,584.319335 355.564,583.974 C355.909335,583.628665 356.319998,583.353334 356.796,583.148 C357.272002,582.942666 357.780664,582.84 358.322,582.84 L370.698,582.84 Z M370.698,599.304 C370.810001,599.304 370.866,599.238667 370.866,599.108 L370.866,586.732 C370.866,586.601333 370.810001,586.536 370.698,586.536 L358.322,586.536 C358.191333,586.536 358.126,586.601333 358.126,586.732 L358.126,599.108 C358.126,599.238667 358.191333,599.304 358.322,599.304 L370.698,599.304 Z M384.106,582.84 L388.166,582.84 L388.166,603 L384.498,603 L384.498,588.188 C384.217999,588.524002 383.942668,588.845998 383.672,589.154 C383.401332,589.462002 383.135335,589.774665 382.874,590.092 L378.03,590.092 L384.106,582.84 Z M408.546,590.82 C409.068669,590.82 409.567998,590.922666 410.044,591.128 C410.520002,591.333334 410.930665,591.608665 411.276,591.954 C411.621335,592.299335 411.896666,592.709998 412.102,593.186 C412.307334,593.662002 412.41,594.161331 412.41,594.684 L412.41,599.136 C412.41,599.677336 412.307334,600.181331 412.102,600.648 C411.896666,601.114669 411.621335,601.520665 411.276,601.866 C410.930665,602.211335 410.520002,602.486666 410.044,602.692 C409.567998,602.897334 409.068669,603 408.546,603 L396.31,603 C395.768664,603 395.264669,602.897334 394.798,602.692 C394.331331,602.486666 393.925335,602.211335 393.58,601.866 C393.234665,601.520665 392.959334,601.114669 392.754,600.648 C392.548666,600.181331 392.446,599.677336 392.446,599.136 L392.446,586.704 C392.446,586.181331 392.548666,585.682002 392.754,585.206 C392.959334,584.729998 393.234665,584.319335 393.58,583.974 C393.925335,583.628665 394.331331,583.353334 394.798,583.148 C395.264669,582.942666 395.768664,582.84 396.31,582.84 L409.218,582.84 L409.218,586.508 L396.31,586.508 C396.179333,586.508 396.114,586.573333 396.114,586.704 L396.114,590.652 C396.114,590.764001 396.179333,590.82 396.31,590.82 L408.546,590.82 Z M408.742,594.684 C408.742,594.571999 408.676667,594.516 408.546,594.516 L396.114,594.516 L396.114,599.136 C396.114,599.266667 396.179333,599.332 396.31,599.332 L408.546,599.332 C408.676667,599.332 408.742,599.266667 408.742,599.136 L408.742,594.684 Z" id="MOUNTAIN-VIEW-CALIFO" fill="#000000" sketch:type="MSShapeGroup" mask="url(#mask-2)"></path>
            <path d="M47.8989324,450 L583.101068,450 C586.316499,461.97965 588,474.349138 588,487 C588,500.003192 586.221422,512.709118 582.828854,525 L48.1711457,525 C44.7785784,512.709118 43,500.003192 43,487 C43,474.349138 44.6835007,461.97965 47.8989324,450 Z" id="Rectangle-7" stroke="#F7DF1E" stroke-width="4" fill="#000000" sketch:type="MSShapeGroup" mask="url(#mask-2)"></path>
            <path d="M98,466.754386 L98,508.245614 L107.841391,508.245614 L107.841391,492.85614 L113.756696,492.85614 C122.184696,492.85614 128.518783,488.078363 128.518783,479.528655 C128.518783,470.928655 122.184696,466.754386 113.756696,466.754386 L98,466.754386 Z M107.841391,485.312281 L107.841391,474.298246 L110.615826,474.298246 C114.489565,474.298246 118.153913,475.555556 118.153913,479.830409 C118.153913,484.054971 114.489565,485.312281 110.615826,485.312281 L107.841391,485.312281 Z M162.255579,466.754386 L137.547405,466.754386 L137.547405,508.245614 L162.255579,508.245614 L162.255579,499.947368 L147.388796,499.947368 L147.388796,491.59883 L161.627405,491.59883 L161.627405,483.300585 L147.388796,483.300585 L147.388796,475.052632 L162.255579,475.052632 L162.255579,466.754386 Z M182.434288,482.495906 L182.538984,482.495906 L199.709071,508.245614 L209.550462,508.245614 L209.550462,466.754386 L199.709071,466.754386 L199.709071,492.504094 L199.604375,492.504094 L182.434288,466.754386 L172.592897,466.754386 L172.592897,508.245614 L182.434288,508.245614 L182.434288,482.495906 Z M230.357345,466.754386 L220.515954,466.754386 L220.515954,508.245614 L230.357345,508.245614 L230.357345,466.754386 Z M251.164228,482.495906 L251.268924,482.495906 L268.439011,508.245614 L278.280402,508.245614 L278.280402,466.754386 L268.439011,466.754386 L268.439011,492.504094 L268.334315,492.504094 L251.164228,466.754386 L241.322837,466.754386 L241.322837,508.245614 L251.164228,508.245614 L251.164228,482.495906 Z M304.112677,466 C297.150416,466 290.031112,470.928655 290.031112,478.673684 C290.031112,482.99883 293.067286,486.871345 298.24972,489.335673 C303.379807,491.8 307.986416,493.157895 307.986416,496.175439 C307.986416,500.047953 303.903286,500.249123 301.757025,500.249123 C296.941025,500.249123 291.182764,495.57193 291.182764,495.57193 L286.262068,503.518129 C286.262068,503.518129 292.386764,509 302.489894,509 C310.917894,509 318.770068,505.529825 318.770068,495.622222 C318.770068,490.190643 313.482938,486.267836 308.666938,484.306433 C303.746242,482.294737 299.663112,480.635088 299.663112,478.321637 C299.663112,476.05848 301.442938,474.6 304.793199,474.6 C309.242764,474.6 313.535286,477.466667 313.535286,477.466667 L317.51372,469.922807 C317.51372,469.922807 311.964851,466 304.112677,466 L304.112677,466 Z M361.248951,466.754386 L351.40756,466.754386 L351.40756,490.74386 C351.40756,497.684211 349.208951,499.695906 344.392951,499.695906 C339.576951,499.695906 337.378343,497.684211 337.378343,490.74386 L337.378343,466.754386 L327.536951,466.754386 L327.536951,493.509942 C327.536951,503.769591 333.399908,509 344.392951,509 C355.385995,509 361.248951,503.769591 361.248951,493.509942 L361.248951,466.754386 Z M381.532356,466.754386 L371.690965,466.754386 L371.690965,508.245614 L396.399139,508.245614 L396.399139,499.947368 L381.532356,499.947368 L381.532356,466.754386 Z M428.670196,466.754386 L419.561674,466.754386 L402.129848,508.245614 L412.704109,508.245614 L415.897327,499.947368 L432.334544,499.947368 L435.527761,508.245614 L446.102022,508.245614 L428.670196,466.754386 Z M428.984283,491.649123 L419.247587,491.649123 L424.063587,479.578947 L424.168283,479.578947 L428.984283,491.649123 Z M490.228484,466.754386 L480.387093,466.754386 L480.387093,494.11345 C480.387093,498.287719 478.240832,499.947368 475.414049,499.947368 C472.901354,499.947368 469.812832,497.130994 469.812832,497.130994 L466.671963,505.026901 C466.671963,505.026901 470.598049,509 476.775093,509 C485.412484,509 490.228484,504.674854 490.228484,496.527485 L490.228484,466.754386 Z M516.584237,466 C509.621976,466 502.502672,470.928655 502.502672,478.673684 C502.502672,482.99883 505.538846,486.871345 510.721281,489.335673 C515.851367,491.8 520.457976,493.157895 520.457976,496.175439 C520.457976,500.047953 516.374846,500.249123 514.228585,500.249123 C509.412585,500.249123 503.654324,495.57193 503.654324,495.57193 L498.733628,503.518129 C498.733628,503.518129 504.858324,509 514.961454,509 C523.389454,509 531.241628,505.529825 531.241628,495.622222 C531.241628,490.190643 525.954498,486.267836 521.138498,484.306433 C516.217802,482.294737 512.134672,480.635088 512.134672,478.321637 C512.134672,476.05848 513.914498,474.6 517.264759,474.6 C521.714324,474.6 526.006846,477.466667 526.006846,477.466667 L529.985281,469.922807 C529.985281,469.922807 524.436411,466 516.584237,466 L516.584237,466 Z" id="PENINSULA-JS" fill="#F7DF1E" sketch:type="MSShapeGroup" mask="url(#mask-2)"></path>
        </g>
    </g>
</svg>